<mxfile host="app.diagrams.net" modified="2021-06-04T02:19:32.157Z" agent="5.0 (Macintosh; Intel Mac OS X 10_14_2) AppleWebKit/537.36 (KHTML, like Gecko) Chrome/90.0.4430.93 Safari/537.36" etag="CSLYHFLTqylZGSFyu0MD" version="14.6.13" type="github">
  <diagram id="59IkXy3NZmnbMq02JvvX" name="第 1 页">
    <mxGraphModel dx="1977" dy="2337" grid="1" gridSize="10" guides="1" tooltips="1" connect="1" arrows="1" fold="1" page="1" pageScale="1" pageWidth="827" pageHeight="1169" math="0" shadow="0">
      <root>
        <mxCell id="0" />
        <mxCell id="1" parent="0" />
        <mxCell id="S4XekFKRvrGMx3-mcvS1-1" value="" style="rounded=0;whiteSpace=wrap;html=1;strokeColor=#0B49B5;" vertex="1" parent="1">
          <mxGeometry x="180" y="70" width="970" height="770" as="geometry" />
        </mxCell>
        <mxCell id="S4XekFKRvrGMx3-mcvS1-2" value="" style="rounded=0;whiteSpace=wrap;html=1;strokeColor=#0B49B5;" vertex="1" parent="1">
          <mxGeometry x="360" y="590" width="610" height="190" as="geometry" />
        </mxCell>
        <mxCell id="S4XekFKRvrGMx3-mcvS1-3" value="" style="rounded=0;whiteSpace=wrap;html=1;fontSize=24;strokeColor=#0B49B5;fillColor=#ffffff;" vertex="1" parent="1">
          <mxGeometry x="420" y="650" width="540" height="30" as="geometry" />
        </mxCell>
        <mxCell id="S4XekFKRvrGMx3-mcvS1-4" value="" style="rounded=0;whiteSpace=wrap;html=1;strokeColor=#0B49B5;" vertex="1" parent="1">
          <mxGeometry x="190" y="80" width="100" height="700" as="geometry" />
        </mxCell>
        <mxCell id="S4XekFKRvrGMx3-mcvS1-5" value="&lt;font style=&quot;font-size: 24px;&quot;&gt;管理层&lt;/font&gt;" style="rounded=0;whiteSpace=wrap;html=1;strokeColor=#BD7000;fontColor=#000000;fillColor=#FFAD0B;fontSize=24;" vertex="1" parent="1">
          <mxGeometry x="190" y="80" width="100" height="50" as="geometry" />
        </mxCell>
        <mxCell id="S4XekFKRvrGMx3-mcvS1-6" value="用户管理&lt;br style=&quot;font-size: 15px;&quot;&gt;权限管理&lt;br style=&quot;font-size: 15px;&quot;&gt;日志管理&lt;br style=&quot;font-size: 15px;&quot;&gt;安全管理" style="rounded=0;whiteSpace=wrap;html=1;strokeColor=#0B49B5;fontSize=15;" vertex="1" parent="1">
          <mxGeometry x="200" y="171" width="80" height="120" as="geometry" />
        </mxCell>
        <mxCell id="S4XekFKRvrGMx3-mcvS1-7" value="数据统计&lt;br style=&quot;font-size: 15px;&quot;&gt;数据标注&lt;br style=&quot;font-size: 15px;&quot;&gt;数据审校&lt;br style=&quot;font-size: 15px;&quot;&gt;数据导入&lt;br style=&quot;font-size: 15px;&quot;&gt;数据导出" style="rounded=0;whiteSpace=wrap;html=1;strokeColor=#0B49B5;fontSize=15;" vertex="1" parent="1">
          <mxGeometry x="200" y="326" width="80" height="120" as="geometry" />
        </mxCell>
        <mxCell id="S4XekFKRvrGMx3-mcvS1-8" value="系统监控&lt;br style=&quot;font-size: 15px;&quot;&gt;&lt;br style=&quot;font-size: 15px;&quot;&gt;故障告警&lt;br style=&quot;font-size: 15px;&quot;&gt;&lt;br style=&quot;font-size: 15px;&quot;&gt;数据异常检测" style="rounded=0;whiteSpace=wrap;html=1;strokeColor=#0B49B5;fontSize=15;" vertex="1" parent="1">
          <mxGeometry x="200" y="480" width="80" height="120" as="geometry" />
        </mxCell>
        <mxCell id="S4XekFKRvrGMx3-mcvS1-9" value="系统参数配置&lt;br style=&quot;font-size: 15px;&quot;&gt;&lt;br style=&quot;font-size: 15px;&quot;&gt;系统预警规则配置" style="rounded=0;whiteSpace=wrap;html=1;strokeColor=#0B49B5;fontSize=15;" vertex="1" parent="1">
          <mxGeometry x="200" y="635" width="80" height="120" as="geometry" />
        </mxCell>
        <mxCell id="S4XekFKRvrGMx3-mcvS1-10" value="" style="rounded=0;whiteSpace=wrap;html=1;strokeColor=#0B49B5;" vertex="1" parent="1">
          <mxGeometry x="360" y="80" width="610" height="120" as="geometry" />
        </mxCell>
        <mxCell id="S4XekFKRvrGMx3-mcvS1-11" value="" style="rounded=0;whiteSpace=wrap;html=1;strokeColor=#0B49B5;" vertex="1" parent="1">
          <mxGeometry x="1040" y="80" width="100" height="750" as="geometry" />
        </mxCell>
        <mxCell id="S4XekFKRvrGMx3-mcvS1-12" value="&lt;font style=&quot;font-size: 24px&quot;&gt;存储层&lt;/font&gt;" style="rounded=0;whiteSpace=wrap;html=1;strokeColor=#BD7000;fontColor=#000000;fillColor=#FFAD0B;fontSize=24;" vertex="1" parent="1">
          <mxGeometry x="1040" y="80" width="100" height="50" as="geometry" />
        </mxCell>
        <mxCell id="S4XekFKRvrGMx3-mcvS1-13" value="" style="html=1;shadow=0;dashed=0;align=center;verticalAlign=middle;shape=mxgraph.arrows2.twoWayArrow;dy=0.65;dx=22;fontSize=24;strokeColor=#006EAF;fillColor=#1ba1e2;fontColor=#ffffff;" vertex="1" parent="1">
          <mxGeometry x="298" y="125" width="56" height="30" as="geometry" />
        </mxCell>
        <mxCell id="S4XekFKRvrGMx3-mcvS1-14" value="&lt;font style=&quot;font-size: 24px&quot;&gt;应&lt;br&gt;用&lt;br&gt;层&lt;/font&gt;" style="rounded=0;whiteSpace=wrap;html=1;strokeColor=#BD7000;fontColor=#000000;fillColor=#FFAD0B;fontSize=24;" vertex="1" parent="1">
          <mxGeometry x="360" y="80" width="50" height="120" as="geometry" />
        </mxCell>
        <mxCell id="S4XekFKRvrGMx3-mcvS1-15" value="" style="html=1;shadow=0;dashed=0;align=center;verticalAlign=middle;shape=mxgraph.arrows2.twoWayArrow;dy=0.65;dx=22;fontSize=24;strokeColor=#006EAF;fillColor=#1ba1e2;fontColor=#ffffff;" vertex="1" parent="1">
          <mxGeometry x="976" y="125" width="56" height="30" as="geometry" />
        </mxCell>
        <mxCell id="S4XekFKRvrGMx3-mcvS1-16" value="用户&lt;br style=&quot;font-size: 18px;&quot;&gt;数据" style="rounded=1;whiteSpace=wrap;html=1;fontSize=18;strokeColor=#0B49B5;fillColor=#FFFFFF;" vertex="1" parent="1">
          <mxGeometry x="1045" y="140" width="90" height="60" as="geometry" />
        </mxCell>
        <mxCell id="S4XekFKRvrGMx3-mcvS1-17" value="图谱&lt;br style=&quot;font-size: 18px&quot;&gt;数据" style="rounded=1;whiteSpace=wrap;html=1;fontSize=18;strokeColor=#0B49B5;fillColor=#FFFFFF;" vertex="1" parent="1">
          <mxGeometry x="1045" y="219" width="90" height="60" as="geometry" />
        </mxCell>
        <mxCell id="S4XekFKRvrGMx3-mcvS1-18" value="知识库&lt;br style=&quot;font-size: 18px&quot;&gt;数据" style="rounded=1;whiteSpace=wrap;html=1;fontSize=18;strokeColor=#0B49B5;fillColor=#FFFFFF;" vertex="1" parent="1">
          <mxGeometry x="1045" y="297" width="90" height="60" as="geometry" />
        </mxCell>
        <mxCell id="S4XekFKRvrGMx3-mcvS1-19" value="知识&lt;br style=&quot;font-size: 18px&quot;&gt;数据" style="rounded=1;whiteSpace=wrap;html=1;fontSize=18;strokeColor=#0B49B5;fillColor=#FFFFFF;" vertex="1" parent="1">
          <mxGeometry x="1045" y="376" width="90" height="60" as="geometry" />
        </mxCell>
        <mxCell id="S4XekFKRvrGMx3-mcvS1-20" value="译文&lt;br style=&quot;font-size: 18px&quot;&gt;数据" style="rounded=1;whiteSpace=wrap;html=1;fontSize=18;strokeColor=#0B49B5;fillColor=#FFFFFF;" vertex="1" parent="1">
          <mxGeometry x="1045" y="454" width="90" height="60" as="geometry" />
        </mxCell>
        <mxCell id="S4XekFKRvrGMx3-mcvS1-21" value="结构化&lt;br style=&quot;font-size: 18px&quot;&gt;数据" style="rounded=1;whiteSpace=wrap;html=1;fontSize=18;strokeColor=#0B49B5;fillColor=#FFFFFF;" vertex="1" parent="1">
          <mxGeometry x="1045" y="533" width="90" height="60" as="geometry" />
        </mxCell>
        <mxCell id="S4XekFKRvrGMx3-mcvS1-22" value="非结构化&lt;br style=&quot;font-size: 18px&quot;&gt;数据" style="rounded=1;whiteSpace=wrap;html=1;fontSize=18;strokeColor=#0B49B5;fillColor=#FFFFFF;" vertex="1" parent="1">
          <mxGeometry x="1045" y="611.5" width="90" height="60" as="geometry" />
        </mxCell>
        <mxCell id="S4XekFKRvrGMx3-mcvS1-23" value="关键词检索" style="rounded=1;whiteSpace=wrap;html=1;fontSize=18;strokeColor=#0B49B5;fillColor=#FFFFFF;" vertex="1" parent="1">
          <mxGeometry x="420" y="95" width="120" height="40" as="geometry" />
        </mxCell>
        <mxCell id="S4XekFKRvrGMx3-mcvS1-24" value="素材管理" style="rounded=1;whiteSpace=wrap;html=1;fontSize=18;strokeColor=#0B49B5;fillColor=#FFFFFF;" vertex="1" parent="1">
          <mxGeometry x="560" y="95" width="120" height="40" as="geometry" />
        </mxCell>
        <mxCell id="S4XekFKRvrGMx3-mcvS1-25" value="专题研究管理" style="rounded=1;whiteSpace=wrap;html=1;fontSize=18;strokeColor=#0B49B5;fillColor=#FFFFFF;" vertex="1" parent="1">
          <mxGeometry x="700" y="95" width="120" height="40" as="geometry" />
        </mxCell>
        <mxCell id="S4XekFKRvrGMx3-mcvS1-26" value="报告展示" style="rounded=1;whiteSpace=wrap;html=1;fontSize=18;strokeColor=#0B49B5;fillColor=#FFFFFF;" vertex="1" parent="1">
          <mxGeometry x="840" y="95" width="120" height="40" as="geometry" />
        </mxCell>
        <mxCell id="S4XekFKRvrGMx3-mcvS1-27" value="事件图谱展示" style="rounded=1;whiteSpace=wrap;html=1;fontSize=18;strokeColor=#0B49B5;fillColor=#FFFFFF;" vertex="1" parent="1">
          <mxGeometry x="840" y="150" width="120" height="40" as="geometry" />
        </mxCell>
        <mxCell id="S4XekFKRvrGMx3-mcvS1-28" value="事件分析" style="rounded=1;whiteSpace=wrap;html=1;fontSize=18;strokeColor=#0B49B5;fillColor=#FFFFFF;" vertex="1" parent="1">
          <mxGeometry x="700" y="150" width="120" height="40" as="geometry" />
        </mxCell>
        <mxCell id="S4XekFKRvrGMx3-mcvS1-29" value="关系图谱分析" style="rounded=1;whiteSpace=wrap;html=1;fontSize=18;strokeColor=#0B49B5;fillColor=#FFFFFF;" vertex="1" parent="1">
          <mxGeometry x="560" y="150" width="120" height="40" as="geometry" />
        </mxCell>
        <mxCell id="S4XekFKRvrGMx3-mcvS1-30" value="知识卡展示" style="rounded=1;whiteSpace=wrap;html=1;fontSize=18;strokeColor=#0B49B5;fillColor=#FFFFFF;" vertex="1" parent="1">
          <mxGeometry x="420" y="150" width="120" height="40" as="geometry" />
        </mxCell>
        <mxCell id="S4XekFKRvrGMx3-mcvS1-31" value="" style="rounded=0;whiteSpace=wrap;html=1;strokeColor=#0B49B5;" vertex="1" parent="1">
          <mxGeometry x="360" y="250" width="610" height="290" as="geometry" />
        </mxCell>
        <mxCell id="S4XekFKRvrGMx3-mcvS1-32" value="知&lt;br&gt;识&lt;br&gt;层" style="rounded=0;whiteSpace=wrap;html=1;strokeColor=#BD7000;fontColor=#000000;fillColor=#FFAD0B;fontSize=24;" vertex="1" parent="1">
          <mxGeometry x="360" y="250" width="50" height="290" as="geometry" />
        </mxCell>
        <mxCell id="S4XekFKRvrGMx3-mcvS1-33" value="" style="html=1;shadow=0;dashed=0;align=center;verticalAlign=middle;shape=mxgraph.arrows2.arrow;dy=0.67;dx=20;notch=0;fontSize=18;strokeColor=#0B49B5;fillColor=#FFFFFF;direction=north;" vertex="1" parent="1">
          <mxGeometry x="470" y="210" width="40" height="30" as="geometry" />
        </mxCell>
        <mxCell id="S4XekFKRvrGMx3-mcvS1-34" value="" style="html=1;shadow=0;dashed=0;align=center;verticalAlign=middle;shape=mxgraph.arrows2.arrow;dy=0.67;dx=20;notch=0;fontSize=18;strokeColor=#0B49B5;fillColor=#FFFFFF;direction=north;" vertex="1" parent="1">
          <mxGeometry x="750" y="210" width="40" height="30" as="geometry" />
        </mxCell>
        <mxCell id="S4XekFKRvrGMx3-mcvS1-35" value="" style="rounded=0;whiteSpace=wrap;html=1;strokeColor=#0B49B5;" vertex="1" parent="1">
          <mxGeometry x="420" y="268" width="260" height="122" as="geometry" />
        </mxCell>
        <mxCell id="S4XekFKRvrGMx3-mcvS1-36" value="本体建模" style="rounded=0;whiteSpace=wrap;html=1;strokeColor=#0B49B5;fontSize=23;labelBorderColor=none;" vertex="1" parent="1">
          <mxGeometry x="720" y="268" width="115" height="122" as="geometry" />
        </mxCell>
        <mxCell id="S4XekFKRvrGMx3-mcvS1-37" value="" style="rounded=0;whiteSpace=wrap;html=1;strokeColor=#0B49B5;dashed=1;fillColor=#D9D9D9;" vertex="1" parent="1">
          <mxGeometry x="850" y="268" width="110" height="272" as="geometry" />
        </mxCell>
        <mxCell id="S4XekFKRvrGMx3-mcvS1-38" value="知识" style="rounded=0;whiteSpace=wrap;html=1;strokeColor=#0B49B5;fontSize=35;" vertex="1" parent="1">
          <mxGeometry x="420" y="268" width="50" height="122" as="geometry" />
        </mxCell>
        <mxCell id="S4XekFKRvrGMx3-mcvS1-39" value="知识推理" style="rounded=1;whiteSpace=wrap;html=1;fontSize=18;strokeColor=#0B49B5;fillColor=#FFFFFF;" vertex="1" parent="1">
          <mxGeometry x="480" y="274" width="180" height="30" as="geometry" />
        </mxCell>
        <mxCell id="S4XekFKRvrGMx3-mcvS1-40" value="知识融合" style="rounded=1;whiteSpace=wrap;html=1;fontSize=18;strokeColor=#0B49B5;fillColor=#FFFFFF;" vertex="1" parent="1">
          <mxGeometry x="480" y="314" width="180" height="30" as="geometry" />
        </mxCell>
        <mxCell id="S4XekFKRvrGMx3-mcvS1-41" value="知识抽取" style="rounded=1;whiteSpace=wrap;html=1;fontSize=18;strokeColor=#0B49B5;fillColor=#FFFFFF;" vertex="1" parent="1">
          <mxGeometry x="480" y="353" width="180" height="30" as="geometry" />
        </mxCell>
        <mxCell id="S4XekFKRvrGMx3-mcvS1-42" value="" style="html=1;shadow=0;dashed=0;align=center;verticalAlign=middle;shape=mxgraph.arrows2.arrow;dy=0.67;dx=20;notch=0;fontSize=35;strokeColor=#006EAF;fillColor=#1ba1e2;fontColor=#ffffff;" vertex="1" parent="1">
          <mxGeometry x="686" y="314" width="30" height="40" as="geometry" />
        </mxCell>
        <mxCell id="S4XekFKRvrGMx3-mcvS1-43" value="&lt;font style=&quot;font-size: 14px;&quot;&gt;音视频识别系统&lt;/font&gt;" style="rounded=1;whiteSpace=wrap;html=1;fontSize=14;strokeColor=#0B49B5;fillColor=#FFFFFF;" vertex="1" parent="1">
          <mxGeometry x="855" y="310" width="100" height="30" as="geometry" />
        </mxCell>
        <mxCell id="S4XekFKRvrGMx3-mcvS1-44" value="智能翻译系统" style="rounded=1;whiteSpace=wrap;html=1;fontSize=14;strokeColor=#0B49B5;fillColor=#FFFFFF;" vertex="1" parent="1">
          <mxGeometry x="855" y="405" width="100" height="30" as="geometry" />
        </mxCell>
        <mxCell id="S4XekFKRvrGMx3-mcvS1-45" value="音视频翻译系统" style="rounded=1;whiteSpace=wrap;html=1;fontSize=14;strokeColor=#0B49B5;fillColor=#FFFFFF;" vertex="1" parent="1">
          <mxGeometry x="855" y="477" width="100" height="30" as="geometry" />
        </mxCell>
        <mxCell id="S4XekFKRvrGMx3-mcvS1-46" value="" style="rounded=0;whiteSpace=wrap;html=1;strokeColor=#0B49B5;" vertex="1" parent="1">
          <mxGeometry x="420" y="405" width="390" height="55" as="geometry" />
        </mxCell>
        <mxCell id="S4XekFKRvrGMx3-mcvS1-47" value="治理" style="rounded=0;whiteSpace=wrap;html=1;strokeColor=#0B49B5;fontSize=20;" vertex="1" parent="1">
          <mxGeometry x="420" y="405" width="50" height="55" as="geometry" />
        </mxCell>
        <mxCell id="S4XekFKRvrGMx3-mcvS1-48" value="" style="rounded=0;whiteSpace=wrap;html=1;strokeColor=#0B49B5;" vertex="1" parent="1">
          <mxGeometry x="420" y="475" width="390" height="55" as="geometry" />
        </mxCell>
        <mxCell id="S4XekFKRvrGMx3-mcvS1-49" value="&lt;font style=&quot;font-size: 20px&quot;&gt;清洗&lt;/font&gt;" style="rounded=0;whiteSpace=wrap;html=1;strokeColor=#0B49B5;fontSize=35;" vertex="1" parent="1">
          <mxGeometry x="420" y="475" width="50" height="55" as="geometry" />
        </mxCell>
        <mxCell id="S4XekFKRvrGMx3-mcvS1-50" value="" style="html=1;shadow=0;dashed=0;align=center;verticalAlign=middle;shape=mxgraph.arrows2.arrow;dy=0.67;dx=20;notch=0;fontSize=35;strokeColor=#006EAF;fillColor=#1ba1e2;fontColor=#ffffff;" vertex="1" parent="1">
          <mxGeometry x="815" y="415" width="30" height="40" as="geometry" />
        </mxCell>
        <mxCell id="S4XekFKRvrGMx3-mcvS1-51" value="" style="html=1;shadow=0;dashed=0;align=center;verticalAlign=middle;shape=mxgraph.arrows2.arrow;dy=0.67;dx=20;notch=0;fontSize=35;strokeColor=#006EAF;fillColor=#1ba1e2;fontColor=#ffffff;" vertex="1" parent="1">
          <mxGeometry x="815" y="482.5" width="30" height="40" as="geometry" />
        </mxCell>
        <mxCell id="S4XekFKRvrGMx3-mcvS1-52" value="分词" style="rounded=1;whiteSpace=wrap;html=1;fontSize=15;strokeColor=#0B49B5;fillColor=#FFFFFF;" vertex="1" parent="1">
          <mxGeometry x="474" y="412.5" width="50" height="40" as="geometry" />
        </mxCell>
        <mxCell id="S4XekFKRvrGMx3-mcvS1-53" value="关键词提取" style="rounded=1;whiteSpace=wrap;html=1;fontSize=15;strokeColor=#0B49B5;fillColor=#FFFFFF;" vertex="1" parent="1">
          <mxGeometry x="531" y="412.5" width="50" height="40" as="geometry" />
        </mxCell>
        <mxCell id="S4XekFKRvrGMx3-mcvS1-54" value="文本&lt;br&gt;摘要" style="rounded=1;whiteSpace=wrap;html=1;fontSize=15;strokeColor=#0B49B5;fillColor=#FFFFFF;" vertex="1" parent="1">
          <mxGeometry x="587" y="412.5" width="50" height="40" as="geometry" />
        </mxCell>
        <mxCell id="S4XekFKRvrGMx3-mcvS1-55" value="语种&lt;br&gt;识别" style="rounded=1;whiteSpace=wrap;html=1;fontSize=15;strokeColor=#0B49B5;fillColor=#FFFFFF;" vertex="1" parent="1">
          <mxGeometry x="644" y="412.5" width="50" height="40" as="geometry" />
        </mxCell>
        <mxCell id="S4XekFKRvrGMx3-mcvS1-56" value="实体&lt;br&gt;抽取" style="rounded=1;whiteSpace=wrap;html=1;fontSize=15;strokeColor=#0B49B5;fillColor=#FFFFFF;" vertex="1" parent="1">
          <mxGeometry x="700" y="412.5" width="50" height="40" as="geometry" />
        </mxCell>
        <mxCell id="S4XekFKRvrGMx3-mcvS1-57" value="标签&lt;br&gt;分类" style="rounded=1;whiteSpace=wrap;html=1;fontSize=15;strokeColor=#0B49B5;fillColor=#FFFFFF;labelBorderColor=none;" vertex="1" parent="1">
          <mxGeometry x="757" y="412.5" width="50" height="40" as="geometry" />
        </mxCell>
        <mxCell id="S4XekFKRvrGMx3-mcvS1-58" value="字段&lt;br&gt;映射" style="rounded=1;whiteSpace=wrap;html=1;fontSize=15;strokeColor=#0B49B5;fillColor=#FFFFFF;" vertex="1" parent="1">
          <mxGeometry x="757" y="482.5" width="50" height="40" as="geometry" />
        </mxCell>
        <mxCell id="S4XekFKRvrGMx3-mcvS1-59" value="数据&lt;br&gt;去重" style="rounded=1;whiteSpace=wrap;html=1;fontSize=15;strokeColor=#0B49B5;fillColor=#FFFFFF;" vertex="1" parent="1">
          <mxGeometry x="700" y="482.5" width="50" height="40" as="geometry" />
        </mxCell>
        <mxCell id="S4XekFKRvrGMx3-mcvS1-60" value="数据&lt;br&gt;过滤" style="rounded=1;whiteSpace=wrap;html=1;fontSize=15;strokeColor=#0B49B5;fillColor=#FFFFFF;" vertex="1" parent="1">
          <mxGeometry x="644" y="482.5" width="50" height="40" as="geometry" />
        </mxCell>
        <mxCell id="S4XekFKRvrGMx3-mcvS1-61" value="格式&lt;br&gt;转换" style="rounded=1;whiteSpace=wrap;html=1;fontSize=15;strokeColor=#0B49B5;fillColor=#FFFFFF;" vertex="1" parent="1">
          <mxGeometry x="587" y="482.5" width="50" height="40" as="geometry" />
        </mxCell>
        <mxCell id="S4XekFKRvrGMx3-mcvS1-62" value="规则&lt;br&gt;关联" style="rounded=1;whiteSpace=wrap;html=1;fontSize=15;strokeColor=#0B49B5;fillColor=#FFFFFF;" vertex="1" parent="1">
          <mxGeometry x="531" y="482.5" width="50" height="40" as="geometry" />
        </mxCell>
        <mxCell id="S4XekFKRvrGMx3-mcvS1-63" value="字段&lt;br&gt;补充" style="rounded=1;whiteSpace=wrap;html=1;fontSize=15;strokeColor=#0B49B5;fillColor=#FFFFFF;" vertex="1" parent="1">
          <mxGeometry x="474" y="482.5" width="50" height="40" as="geometry" />
        </mxCell>
        <mxCell id="S4XekFKRvrGMx3-mcvS1-64" value="数&lt;br&gt;据&lt;br&gt;层" style="rounded=0;whiteSpace=wrap;html=1;strokeColor=#BD7000;fontColor=#000000;fillColor=#FFAD0B;fontSize=24;" vertex="1" parent="1">
          <mxGeometry x="360" y="590" width="50" height="190" as="geometry" />
        </mxCell>
        <mxCell id="S4XekFKRvrGMx3-mcvS1-65" value="数据接入平台" style="rounded=0;whiteSpace=wrap;html=1;fontSize=24;strokeColor=#0B49B5;fillColor=#ffffff;dashed=1;" vertex="1" parent="1">
          <mxGeometry x="420" y="603" width="540" height="30" as="geometry" />
        </mxCell>
        <mxCell id="S4XekFKRvrGMx3-mcvS1-66" value="数据去重" style="rounded=1;whiteSpace=wrap;html=1;fontSize=18;strokeColor=#0B49B5;fillColor=#FFFFFF;" vertex="1" parent="1">
          <mxGeometry x="760" y="652.5" width="120" height="25" as="geometry" />
        </mxCell>
        <mxCell id="S4XekFKRvrGMx3-mcvS1-67" value="质量过滤" style="rounded=1;whiteSpace=wrap;html=1;fontSize=18;strokeColor=#0B49B5;fillColor=#FFFFFF;" vertex="1" parent="1">
          <mxGeometry x="620" y="652.5" width="120" height="25" as="geometry" />
        </mxCell>
        <mxCell id="S4XekFKRvrGMx3-mcvS1-68" value="数据清洗" style="rounded=1;whiteSpace=wrap;html=1;fontSize=18;strokeColor=#0B49B5;fillColor=#FFFFFF;" vertex="1" parent="1">
          <mxGeometry x="480" y="652.5" width="120" height="25" as="geometry" />
        </mxCell>
        <mxCell id="S4XekFKRvrGMx3-mcvS1-69" value="" style="html=1;shadow=0;dashed=0;align=center;verticalAlign=middle;shape=mxgraph.arrows2.arrow;dy=0.67;dx=20;notch=0;fontSize=35;strokeColor=#006EAF;fillColor=#1ba1e2;fontColor=#ffffff;direction=north;" vertex="1" parent="1">
          <mxGeometry x="659" y="550" width="40" height="30" as="geometry" />
        </mxCell>
        <mxCell id="S4XekFKRvrGMx3-mcvS1-70" value="" style="html=1;shadow=0;dashed=0;align=center;verticalAlign=middle;shape=mxgraph.arrows2.arrow;dy=0.7;dx=9.49;notch=0;fontSize=35;strokeColor=#006EAF;fillColor=#1ba1e2;fontColor=#ffffff;direction=north;" vertex="1" parent="1">
          <mxGeometry x="659" y="633" width="30" height="17" as="geometry" />
        </mxCell>
        <mxCell id="S4XekFKRvrGMx3-mcvS1-71" value="文档解析服务" style="rounded=0;whiteSpace=wrap;html=1;fontSize=20;strokeColor=#0B49B5;fillColor=#ffffff;" vertex="1" parent="1">
          <mxGeometry x="420" y="697" width="540" height="30" as="geometry" />
        </mxCell>
        <mxCell id="S4XekFKRvrGMx3-mcvS1-72" value="" style="html=1;shadow=0;dashed=0;align=center;verticalAlign=middle;shape=mxgraph.arrows2.arrow;dy=0.7;dx=9.49;notch=0;fontSize=35;strokeColor=#006EAF;fillColor=#1ba1e2;fontColor=#ffffff;direction=north;" vertex="1" parent="1">
          <mxGeometry x="659" y="680" width="30" height="17" as="geometry" />
        </mxCell>
        <mxCell id="S4XekFKRvrGMx3-mcvS1-73" value="" style="rounded=0;whiteSpace=wrap;html=1;fontSize=24;strokeColor=#0B49B5;fillColor=#ffffff;" vertex="1" parent="1">
          <mxGeometry x="420" y="744" width="540" height="30" as="geometry" />
        </mxCell>
        <mxCell id="S4XekFKRvrGMx3-mcvS1-74" value="内部历史数据" style="rounded=1;whiteSpace=wrap;html=1;fontSize=15;strokeColor=#0B49B5;fillColor=#FFFFFF;" vertex="1" parent="1">
          <mxGeometry x="850" y="746.5" width="100" height="25" as="geometry" />
        </mxCell>
        <mxCell id="S4XekFKRvrGMx3-mcvS1-75" value="内部数据源" style="rounded=1;whiteSpace=wrap;html=1;fontSize=15;strokeColor=#0B49B5;fillColor=#FFFFFF;" vertex="1" parent="1">
          <mxGeometry x="730" y="746.5" width="100" height="25" as="geometry" />
        </mxCell>
        <mxCell id="S4XekFKRvrGMx3-mcvS1-76" value="网情数据" style="rounded=1;whiteSpace=wrap;html=1;fontSize=15;strokeColor=#0B49B5;fillColor=#FFFFFF;" vertex="1" parent="1">
          <mxGeometry x="431" y="746.5" width="209" height="25" as="geometry" />
        </mxCell>
        <mxCell id="S4XekFKRvrGMx3-mcvS1-77" value="" style="html=1;shadow=0;dashed=0;align=center;verticalAlign=middle;shape=mxgraph.arrows2.arrow;dy=0.7;dx=9.49;notch=0;fontSize=35;strokeColor=#006EAF;fillColor=#1ba1e2;fontColor=#ffffff;direction=north;" vertex="1" parent="1">
          <mxGeometry x="659" y="727" width="30" height="17" as="geometry" />
        </mxCell>
        <mxCell id="S4XekFKRvrGMx3-mcvS1-78" value="" style="rounded=0;whiteSpace=wrap;html=1;fontSize=12;strokeColor=#0B49B5;fillColor=#ffffff;" vertex="1" parent="1">
          <mxGeometry x="1040" y="697" width="100" height="133" as="geometry" />
        </mxCell>
        <mxCell id="S4XekFKRvrGMx3-mcvS1-79" value="Mysql" style="rounded=0;whiteSpace=wrap;html=1;fontSize=12;strokeColor=#0B49B5;fillColor=#ffffff;" vertex="1" parent="1">
          <mxGeometry x="1050" y="699.5" width="80" height="15" as="geometry" />
        </mxCell>
        <mxCell id="S4XekFKRvrGMx3-mcvS1-80" value="" style="rounded=0;whiteSpace=wrap;html=1;fontSize=12;strokeColor=#0B49B5;fillColor=#5EB4FF;" vertex="1" parent="1">
          <mxGeometry x="1040" y="693" width="100" height="4" as="geometry" />
        </mxCell>
        <mxCell id="S4XekFKRvrGMx3-mcvS1-81" value="" style="rounded=0;whiteSpace=wrap;html=1;fontSize=12;strokeColor=#0B49B5;fillColor=#ffffff;" vertex="1" parent="1">
          <mxGeometry x="1050" y="718" width="80" height="15" as="geometry" />
        </mxCell>
        <mxCell id="S4XekFKRvrGMx3-mcvS1-82" value="Es" style="rounded=0;whiteSpace=wrap;html=1;fontSize=12;strokeColor=#0B49B5;fillColor=#ffffff;" vertex="1" parent="1">
          <mxGeometry x="1050" y="755" width="80" height="15" as="geometry" />
        </mxCell>
        <mxCell id="S4XekFKRvrGMx3-mcvS1-83" value="" style="rounded=0;whiteSpace=wrap;html=1;fontSize=12;strokeColor=#0B49B5;fillColor=#ffffff;" vertex="1" parent="1">
          <mxGeometry x="1050" y="737" width="80" height="15" as="geometry" />
        </mxCell>
        <mxCell id="S4XekFKRvrGMx3-mcvS1-84" value="" style="rounded=0;whiteSpace=wrap;html=1;fontSize=12;strokeColor=#0B49B5;fillColor=#ffffff;" vertex="1" parent="1">
          <mxGeometry x="1050" y="774" width="80" height="15" as="geometry" />
        </mxCell>
        <mxCell id="S4XekFKRvrGMx3-mcvS1-85" value="" style="rounded=0;whiteSpace=wrap;html=1;fontSize=12;strokeColor=#0B49B5;fillColor=#ffffff;" vertex="1" parent="1">
          <mxGeometry x="1050" y="792" width="80" height="15" as="geometry" />
        </mxCell>
        <mxCell id="S4XekFKRvrGMx3-mcvS1-86" value="" style="rounded=0;whiteSpace=wrap;html=1;fontSize=12;strokeColor=#0B49B5;fillColor=#ffffff;" vertex="1" parent="1">
          <mxGeometry x="1050" y="811" width="80" height="15" as="geometry" />
        </mxCell>
        <mxCell id="S4XekFKRvrGMx3-mcvS1-87" value="多元化检索" style="rounded=1;whiteSpace=wrap;html=1;fontSize=18;strokeColor=#0B49B5;fillColor=#FFFFFF;" vertex="1" parent="1">
          <mxGeometry x="555" y="-10" width="120" height="40" as="geometry" />
        </mxCell>
        <mxCell id="S4XekFKRvrGMx3-mcvS1-88" value="战略态势展示" style="rounded=1;whiteSpace=wrap;html=1;fontSize=18;strokeColor=#0B49B5;fillColor=#FFFFFF;" vertex="1" parent="1">
          <mxGeometry x="690" y="-10" width="120" height="40" as="geometry" />
        </mxCell>
      </root>
    </mxGraphModel>
  </diagram>
</mxfile>
